<svg width="839" height="839" xmlns="http://www.w3.org/2000/svg" xmlns:xlink="http://www.w3.org/1999/xlink" overflow="hidden"><defs><clipPath id="clip0"><rect x="1638" y="780" width="839" height="839"/></clipPath><clipPath id="clip1"><rect x="1772" y="832" width="653" height="653"/></clipPath><clipPath id="clip2"><rect x="1772" y="832" width="653" height="653"/></clipPath><clipPath id="clip3"><rect x="1772" y="832" width="653" height="653"/></clipPath><clipPath id="clip4"><rect x="1917" y="1159" width="257" height="257"/></clipPath><clipPath id="clip5"><rect x="1917" y="1159" width="257" height="257"/></clipPath><clipPath id="clip6"><rect x="1917" y="1159" width="257" height="257"/></clipPath></defs><g clip-path="url(#clip0)" transform="translate(-1638 -780)"><path d="M1652 1199.5C1652 975.549 1833.55 794 2057.5 794 2281.45 794 2463 975.549 2463 1199.5 2463 1423.45 2281.45 1605 2057.5 1605 1833.55 1605 1652 1423.45 1652 1199.5Z" stroke="#FFFFFF" stroke-width="27.5" stroke-miterlimit="8" fill="none" fill-rule="evenodd"/><g clip-path="url(#clip1)"><g clip-path="url(#clip2)"><g clip-path="url(#clip3)"><path d="M2309.9 1235.07C2309.9 1179.37 2266.43 1134.55 2211.42 1131.83L2211.42 1091.08 1885.42 1091.08 1885.42 1403.5C1885.42 1418.44 1897.65 1430.67 1912.59 1430.67L2184.25 1430.67C2199.2 1430.67 2211.42 1418.44 2211.42 1403.5L2211.42 1338.98C2266.43 1336.26 2309.9 1290.76 2309.9 1235.07ZM2212.1 1298.23 2212.1 1172.58C2244.7 1175.3 2269.83 1202.47 2269.83 1235.07 2269.83 1267.67 2244.02 1295.51 2212.1 1298.23Z" stroke="#FFFFFF" stroke-width="20.6984" fill="none"/><path d="M2036.2 958.646C2040.27 962.721 2042.31 967.475 2042.31 972.908 2042.31 978.342 2040.27 983.775 2036.2 987.171 2030.76 992.604 2030.76 1000.75 2036.2 1006.19 2038.91 1008.9 2042.31 1010.26 2045.7 1010.26 2049.1 1010.26 2052.5 1008.9 2055.21 1006.19 2064.04 997.358 2069.48 985.133 2069.48 972.229 2069.48 959.325 2064.72 947.779 2055.21 938.95 2055.21 938.95 2055.21 938.95 2055.21 938.95 2047.06 930.8 2047.06 917.896 2055.21 910.425 2060.65 904.992 2060.65 896.842 2055.21 891.408 2049.78 885.975 2041.63 885.975 2036.2 891.408 2017.18 909.746 2017.18 940.308 2036.2 958.646 2036.2 958.646 2036.2 958.646 2036.2 958.646Z" stroke="#FFFFFF" stroke-width="20.6984" fill="none"/><path d="M2110.23 998.037C2118.38 1006.19 2118.38 1019.09 2110.23 1026.56 2104.79 1032 2104.79 1040.15 2110.23 1045.58 2112.94 1048.3 2116.34 1049.65 2119.73 1049.65 2123.13 1049.65 2126.53 1048.3 2129.24 1045.58 2147.58 1027.24 2147.58 996.679 2129.24 978.342 2129.24 978.342 2129.24 978.342 2129.24 978.342 2125.17 974.267 2123.13 969.512 2123.13 964.079 2123.13 958.646 2125.17 953.212 2129.24 949.817 2134.68 944.383 2134.68 936.233 2129.24 930.8 2123.81 925.367 2115.66 925.367 2110.23 930.8 2101.4 939.629 2095.96 951.854 2095.96 964.758 2096.64 977.662 2101.4 989.208 2110.23 998.037 2110.23 998.037 2110.23 998.037 2110.23 998.037Z" stroke="#FFFFFF" stroke-width="20.6984" fill="none"/><path d="M1968.28 998.037C1972.35 1002.11 1974.39 1006.87 1974.39 1012.3 1974.39 1017.73 1972.35 1023.17 1968.28 1026.56 1962.85 1032 1962.85 1040.15 1968.28 1045.58 1971 1048.3 1974.39 1049.65 1977.79 1049.65 1981.18 1049.65 1984.58 1048.3 1987.3 1045.58 1996.12 1036.75 2001.56 1024.52 2001.56 1011.62 2001.56 998.717 1996.8 987.171 1987.3 977.662L1987.3 977.662C1979.15 969.512 1979.15 956.608 1987.3 949.137 1992.73 943.704 1992.73 935.554 1987.3 930.121 1981.86 924.687 1973.71 924.687 1968.28 930.121 1949.26 949.817 1949.26 979.7 1968.28 998.037 1968.28 998.037 1968.28 998.037 1968.28 998.037Z" stroke="#FFFFFF" stroke-width="20.6984" fill="none"/></g></g></g><g clip-path="url(#clip4)"><g clip-path="url(#clip5)"><g clip-path="url(#clip6)"><path d="M2136.52 1258.32C2132.24 1257.52 2127.95 1261.8 2126.62 1268.22 2125.28 1274.65 2127.69 1280.27 2131.97 1281.07 2136.25 1281.88 2140.54 1277.59 2141.88 1271.17 2143.21 1264.74 2140.54 1259.12 2136.52 1258.32Z" fill="#FFFFFF"/><path d="M1935.47 1308.92C1933.87 1307.04 1932.79 1304.9 1931.99 1302.49 1931.46 1300.89 1931.19 1299.01 1931.19 1297.41L1931.19 1294.46C1931.19 1259.66 1965.72 1226.73 2002.13 1226.73L2006.41 1226.73C2012.84 1226.73 2024.89 1227 2030.24 1227 2032.38 1227 2037.47 1227 2040.15 1226.73L2045.77 1225.93C2028.63 1256.98 2035.06 1300.62 2038 1315.34L2036.93 1315.61C2028.37 1317.48 2019.53 1318.29 2010.7 1318.29L1986.6 1318.29C1980.98 1323.37 1974.29 1327.39 1967.33 1330.33L1967.33 1339.44C1967.33 1346.93 1973.22 1352.82 1980.71 1352.82 1988.21 1352.82 1994.1 1346.93 1994.1 1339.44L1994.1 1326.32 2010.7 1326.32C2020.07 1326.32 2029.44 1325.25 2038.54 1323.37L2042.29 1322.57 2042.29 1339.44C2042.29 1346.93 2048.18 1352.82 2055.67 1352.82 2063.17 1352.82 2069.06 1346.93 2069.06 1339.44L2069.06 1314.54C2070.93 1313.74 2072.81 1312.93 2074.41 1312.13L2074.41 1339.17C2074.41 1346.66 2080.3 1352.55 2087.8 1352.55 2095.29 1352.55 2101.18 1346.66 2101.18 1339.17L2101.18 1306.24 2116.98 1305.7 2150.17 1312.13C2150.71 1312.13 2151.24 1312.13 2151.78 1312.13 2154.99 1311.33 2158.21 1309.72 2160.61 1307.31 2163.29 1304.63 2165.17 1299.28 2167.04 1293.93 2168.38 1289.91 2167.31 1285.63 2164.36 1282.41 2160.61 1278.4 2157.4 1274.11 2154.46 1269.56 2154.46 1256.18 2147.23 1243.6 2135.72 1236.9 2136.52 1228.07 2134.65 1219.23 2125.28 1221.91 2121.26 1222.98 2117.78 1225.66 2115.37 1228.87L2090.74 1219.23C2083.25 1216.56 2075.48 1215.22 2067.72 1215.49 2063.44 1215.49 2059.42 1215.75 2055.14 1216.29L2039.61 1218.43C2037.74 1218.7 2033.19 1218.7 2030.51 1218.7 2025.42 1218.7 2013.38 1218.43 2006.95 1218.43L2002.67 1218.43C1961.17 1218.43 1923.69 1254.57 1923.69 1294.19L1923.69 1297.14C1923.69 1299.55 1923.96 1301.96 1924.76 1304.37 1926.64 1310.52 1930.65 1315.61 1936.01 1319.09L1936.01 1338.9C1936.01 1346.4 1941.9 1352.29 1949.39 1352.29 1956.89 1352.29 1962.78 1346.4 1962.78 1338.9 1962.78 1338.9 1962.78 1338.9 1962.78 1338.9L1962.78 1326.32C1985.53 1317.75 1995.17 1302.76 1995.44 1292.05 1995.44 1285.63 1991.96 1269.83 1968.67 1271.17 1951.53 1271.97 1937.61 1285.36 1936.28 1302.49L1936.28 1308.92ZM2154.99 1301.69C2153.92 1302.76 2152.85 1304.37 2150.98 1304.1L2118.32 1297.94C2118.05 1297.94 2117.78 1297.94 2117.51 1297.94L2086.99 1298.74C2089.94 1293.93 2091.81 1288.57 2092.35 1282.95 2096.1 1249.49 2067.45 1246.01 2072 1224.05 2077.36 1224.32 2082.71 1225.39 2087.8 1227.27L2111.62 1236.64C2110.55 1240.12 2110.02 1243.6 2110.02 1247.08 2110.02 1248.95 2111.36 1250.56 2113.23 1250.82 2113.77 1250.82 2114.57 1250.82 2115.1 1250.56 2119.39 1248.15 2123.94 1246.81 2129.02 1246.81 2130.36 1246.81 2131.7 1246.27 2133.04 1245.47 2141.61 1251.36 2146.96 1261 2146.69 1271.44 2146.69 1274.65 2159.01 1288.84 2159.01 1288.84 2161.42 1290.98 2157.13 1299.28 2154.99 1301.69L2154.99 1301.69Z" fill="#FFFFFF"/></g></g></g></g></svg>