<svg width="514" height="746" xmlns="http://www.w3.org/2000/svg" xmlns:xlink="http://www.w3.org/1999/xlink" overflow="hidden"><defs><clipPath id="clip0"><rect x="1864" y="724" width="514" height="746"/></clipPath><clipPath id="clip1"><rect x="1952" y="816" width="331" height="331"/></clipPath><clipPath id="clip2"><rect x="1952" y="816" width="331" height="331"/></clipPath><clipPath id="clip3"><rect x="1952" y="816" width="331" height="331"/></clipPath></defs><g clip-path="url(#clip0)" transform="translate(-1864 -724)"><path d="M2308.62 805.383C2405.52 908.845 2400.2 1071.27 2296.73 1168.17 2212.61 1246.96 2148.79 1347.43 2105.27 1469.58 2069.84 1344.84 2012.74 1240.41 1933.95 1156.28 1837.05 1052.82 1842.37 890.396 1945.83 793.497 2049.29 696.599 2211.72 701.92 2308.62 805.383Z" fill="#4472C4" fill-rule="evenodd"/><path d="M1895 978C1895 854.84 1994.84 755 2118 755 2241.16 755 2341 854.84 2341 978 2341 1101.16 2241.16 1201 2118 1201 1994.84 1201 1895 1101.16 1895 978Z" fill="#FFFFFF" fill-rule="evenodd"/><g clip-path="url(#clip1)"><g clip-path="url(#clip2)"><g clip-path="url(#clip3)"><path d="M2048.42 1080.69C2048.42 1086.38 2053.04 1091 2058.74 1091 2064.43 1091 2069.05 1086.38 2069.05 1080.69L2069.05 1008.5 2048.42 1008.5Z" fill="#203864"/><path d="M1969.88 1013.69C1966.44 1013.66 1963.48 1016.09 1962.83 1019.47 1962.22 1023.21 1964.77 1026.74 1968.52 1027.35 1968.91 1027.42 1969.31 1027.45 1969.71 1027.44L1979.3 1027.44C1994.15 1026.38 2006.8 1015.51 2006.8 1001.59L2006.8 978.353C2006.82 969.081 2012.79 960.871 2021.61 958.003 2018.56 961.889 2016.27 966.323 2014.87 971.066 2014.26 973.174 2013.98 975.367 2014.05 977.563L2014.05 1080.34C2013.96 1085.39 2017.39 1089.82 2022.3 1091 2027.88 1092.14 2033.33 1088.54 2034.47 1082.96 2034.6 1082.32 2034.67 1081.68 2034.67 1081.03L2034.67 1001.63 2070.84 1001.63C2089.64 1038.78 2129.1 1034.32 2148.11 1034.9L2149.83 1034.9 2149.83 1079.93C2149.72 1085.53 2153.89 1090.29 2159.46 1090.93 2165.24 1091.22 2170.16 1086.76 2170.44 1080.98 2170.45 1080.86 2170.45 1080.74 2170.46 1080.62L2170.46 1034.21 2184.21 1034.21 2184.21 1080.28C2184.12 1085.32 2187.55 1089.75 2192.46 1090.93 2198.04 1092.07 2203.48 1088.47 2204.62 1082.89 2204.75 1082.26 2204.82 1081.61 2204.83 1080.96L2204.83 1011.35C2208.38 1014.02 2210.66 1018.04 2211.12 1022.46L2211.12 1022.46C2211.64 1021.8 2212.19 1021.18 2212.77 1020.53 2213.36 1019.88 2213.91 1019.26 2214.46 1018.61 2217.23 1015.4 2218.62 1011.22 2218.31 1006.99 2217.79 1000.11 2217.69 993.581 2217.69 993.581 2221.9 995.438 2224.85 999.338 2225.49 1003.89L2225.49 1003.89C2226.62 1001.59 2227.53 999.183 2228.21 996.709 2229.79 990.419 2229.65 978.972 2230.68 971.925 2230.73 969.704 2232.56 967.941 2234.78 967.986 2234.89 967.988 2235.01 967.995 2235.12 968.006L2255.74 970.825C2259.54 970.799 2262.59 967.699 2262.57 963.902 2262.56 963.374 2262.5 962.848 2262.38 962.334L2260.59 955.459 2262.55 956.009C2265.06 956.7 2267.7 955.5 2268.84 953.156L2273.07 944.356C2274.21 941.997 2273.6 939.161 2271.59 937.481 2266.91 933.563 2258.94 926.791 2258.94 926.619 2261 917.991 2251.13 912.078 2251.13 912.078 2254.4 908.624 2255.99 903.916 2255.5 899.188 2255.17 889.397 2248.18 881.104 2238.59 879.113L2238.59 891.625C2231.44 880.384 2214.25 869.281 2182.56 871.447 2176.17 871.648 2169.82 872.583 2163.65 874.231 2163.65 874.231 2163.65 874.231 2163.65 874.231 2170.99 876.772 2177.51 881.222 2182.56 887.122 2182.56 887.122 2163.79 884.028 2154.27 898.913 2144.74 913.797 2124.26 916.65 2122.43 916.856 2122.43 916.856 2122.43 916.856 2122.43 916.856 2125.69 920.215 2129.68 922.77 2134.09 924.316 2137.19 924.894 2140.32 925.307 2143.47 925.553 2129.72 936.347 2109.1 933.906 2107.31 933.666 2107.31 933.666 2107.31 933.666 2107.31 933.666 2110.27 937.044 2113.45 940.225 2116.83 943.188L2048.42 943.188 2028.11 943.188C2008.69 943.206 1992.95 958.934 1992.91 978.353L1992.91 999.906C1992.91 1007.5 1986.75 1013.66 1979.16 1013.66Z" fill="#203864"/></g></g></g></g></svg>