<svg width="514" height="746" xmlns="http://www.w3.org/2000/svg" xmlns:xlink="http://www.w3.org/1999/xlink" overflow="hidden"><defs><clipPath id="clip0"><rect x="202" y="136" width="514" height="746"/></clipPath><clipPath id="clip1"><rect x="291" y="240" width="331" height="331"/></clipPath><clipPath id="clip2"><rect x="291" y="240" width="331" height="331"/></clipPath><clipPath id="clip3"><rect x="291" y="240" width="331" height="331"/></clipPath></defs><g clip-path="url(#clip0)" transform="translate(-202 -136)"><path d="M646.396 217.261C743.295 320.724 737.974 483.149 634.511 580.048 550.384 658.838 486.563 759.309 443.048 881.462 407.622 756.723 350.514 652.29 271.724 568.163 174.825 464.7 180.147 302.275 283.609 205.376 387.072 108.477 549.497 113.798 646.396 217.261Z" fill="#4472C4" fill-rule="evenodd"/><path d="M233 390C233 266.841 332.841 167 456 167 579.159 167 679 266.841 679 390 679 513.159 579.159 613 456 613 332.841 613 233 513.159 233 390Z" fill="#FFFFFF" fill-rule="evenodd"/><g clip-path="url(#clip1)"><g clip-path="url(#clip2)"><g clip-path="url(#clip3)"><path d="M572.875 368.531C567.375 367.5 561.875 373 560.156 381.25 558.438 389.5 561.531 396.719 567.031 397.75 572.531 398.781 578.031 393.281 579.75 385.031 581.469 376.781 578.031 369.562 572.875 368.531Z" fill="#203864"/><path d="M314.719 433.5C312.656 431.094 311.281 428.344 310.25 425.25 309.563 423.187 309.219 420.781 309.219 418.719L309.219 414.937C309.219 370.25 353.563 327.969 400.313 327.969L405.813 327.969C414.063 327.969 429.531 328.312 436.406 328.312 439.156 328.312 445.688 328.312 449.125 327.969L456.344 326.937C434.344 366.812 442.594 422.844 446.375 441.75L445 442.094C434 444.5 422.656 445.531 411.313 445.531L380.375 445.531C373.156 452.062 364.563 457.219 355.625 461L355.625 472.687C355.625 482.312 363.188 489.875 372.813 489.875 382.438 489.875 390 482.312 390 472.687L390 455.844 411.313 455.844C423.344 455.844 435.375 454.469 447.063 452.062L451.875 451.031 451.875 472.687C451.875 482.312 459.438 489.875 469.063 489.875 478.688 489.875 486.25 482.312 486.25 472.687L486.25 440.719C488.656 439.687 491.063 438.656 493.125 437.625L493.125 472.344C493.125 481.969 500.688 489.531 510.313 489.531 519.938 489.531 527.5 481.969 527.5 472.344L527.5 430.062 547.781 429.375 590.406 437.625C591.094 437.625 591.781 437.625 592.469 437.625 596.594 436.594 600.719 434.531 603.813 431.437 607.25 428 609.656 421.125 612.063 414.25 613.781 409.094 612.406 403.594 608.625 399.469 603.813 394.312 599.688 388.812 595.906 382.969 595.906 365.781 586.625 349.625 571.844 341.031 572.875 329.687 570.469 318.344 558.438 321.781 553.281 323.156 548.813 326.594 545.719 330.719L514.094 318.344C504.469 314.906 494.5 313.187 484.531 313.531 479.031 313.531 473.875 313.875 468.375 314.562L448.438 317.312C446.031 317.656 440.188 317.656 436.75 317.656 430.219 317.656 414.75 317.312 406.5 317.312L401 317.312C347.719 317.312 299.594 363.719 299.594 414.594L299.594 418.375C299.594 421.469 299.938 424.562 300.969 427.656 303.375 435.562 308.531 442.094 315.406 446.562L315.406 472C315.406 481.625 322.969 489.187 332.594 489.187 342.219 489.187 349.781 481.625 349.781 472 349.781 472 349.781 472 349.781 472L349.781 455.844C379 444.844 391.375 425.594 391.719 411.844 391.719 403.594 387.25 383.312 357.344 385.031 335.344 386.062 317.469 403.25 315.75 425.25L315.75 433.5ZM596.594 424.219C595.219 425.594 593.844 427.656 591.438 427.312L549.5 419.406C549.156 419.406 548.813 419.406 548.469 419.406L509.281 420.437C513.063 414.25 515.469 407.375 516.156 400.156 520.969 357.187 484.188 352.719 490.031 324.531 496.906 324.875 503.781 326.25 510.313 328.656L540.906 340.687C539.531 345.156 538.844 349.625 538.844 354.094 538.844 356.5 540.563 358.562 542.969 358.906 543.656 358.906 544.688 358.906 545.375 358.562 550.875 355.469 556.719 353.75 563.25 353.75 564.969 353.75 566.688 353.062 568.406 352.031 579.406 359.594 586.281 371.969 585.938 385.375 585.938 389.5 601.75 407.719 601.75 407.719 604.844 410.469 599.344 421.125 596.594 424.219L596.594 424.219Z" fill="#203864"/></g></g></g></g></svg>