<svg width="514" height="746" xmlns="http://www.w3.org/2000/svg" xmlns:xlink="http://www.w3.org/1999/xlink" overflow="hidden"><defs><clipPath id="clip0"><rect x="1864" y="724" width="514" height="746"/></clipPath><clipPath id="clip1"><rect x="1955" y="816" width="331" height="331"/></clipPath><clipPath id="clip2"><rect x="1955" y="816" width="331" height="331"/></clipPath><clipPath id="clip3"><rect x="1955" y="816" width="331" height="331"/></clipPath></defs><g clip-path="url(#clip0)" transform="translate(-1864 -724)"><path d="M2308.62 805.383C2405.52 908.845 2400.2 1071.27 2296.73 1168.17 2212.61 1246.96 2148.79 1347.43 2105.27 1469.58 2069.84 1344.84 2012.74 1240.41 1933.95 1156.28 1837.05 1052.82 1842.37 890.396 1945.83 793.497 2049.29 696.599 2211.72 701.92 2308.62 805.383Z" fill="#4472C4" fill-rule="evenodd"/><path d="M1895 978C1895 854.84 1994.84 755 2118 755 2241.16 755 2341 854.84 2341 978 2341 1101.16 2241.16 1201 2118 1201 1994.84 1201 1895 1101.16 1895 978Z" fill="#FFFFFF" fill-rule="evenodd"/><g clip-path="url(#clip1)"><g clip-path="url(#clip2)"><g clip-path="url(#clip3)"><path d="M2248.19 876.5C2248.04 874.344 2247.11 872.316 2245.57 870.794L2237.22 862.475C2236.06 861.303 2235.21 859.862 2234.75 858.281L2232.99 852.3C2232 848.928 2229.65 846.123 2226.5 844.566L2219.31 842.091 2221.34 832.5C2222.63 831.768 2223.53 830.514 2223.82 829.063 2224.02 826.222 2221.89 823.752 2219.05 823.544 2216.73 823.375 2214.59 824.776 2213.81 826.966 2213.48 828.394 2213.81 829.896 2214.71 831.056L2212.75 840.063 2212.54 840.063 2210.79 831.194C2212.46 828.886 2211.94 825.662 2209.63 823.994 2207.32 822.326 2204.1 822.845 2202.43 825.153 2200.76 827.461 2201.28 830.684 2203.59 832.353 2203.69 832.429 2203.8 832.501 2203.91 832.569L2205.56 840.063C2204.58 840.251 2203.64 840.637 2202.81 841.197L2200.2 842.916 2187.96 840.166C2186.47 839.802 2184.96 840.719 2184.6 842.213 2184.39 843.077 2184.6 843.99 2185.18 844.669L2191.85 851.716 2117.01 968.281C2115.24 971.058 2112.41 972.984 2109.17 973.609L2048.81 989.594C2046.61 990.014 2044.44 990.635 2042.35 991.45 2022.17 995.419 2007.6 1013.09 2007.56 1033.66L2007.56 1072.13C2007.56 1075.27 2005.88 1078.18 2003.16 1079.76 2000.69 1081.18 1999.85 1084.33 2001.27 1086.8 2002.19 1088.4 2003.89 1089.39 2005.74 1089.38 2006.65 1089.39 2007.54 1089.15 2008.32 1088.7 2014.22 1085.26 2017.86 1078.96 2017.87 1072.13L2017.87 1033.66C2017.88 1025.85 2020.68 1018.3 2025.78 1012.38 2024.97 1016.99 2024.63 1021.67 2024.75 1026.34L2024.75 1038.41 2024.75 1056.62 2024.75 1127.64C2024.75 1133.34 2029.37 1137.96 2035.06 1137.96 2040.76 1137.96 2045.37 1133.34 2045.37 1127.64L2045.37 1054.29 2100.38 1048.2 2100.38 1127.64C2100.38 1133.34 2104.99 1137.96 2110.69 1137.96 2116.38 1137.96 2121 1133.34 2121 1127.64L2121 1045.9 2127.88 1045.14 2127.88 1127.64C2127.88 1133.34 2132.49 1137.96 2138.19 1137.96 2143.88 1137.96 2148.5 1133.34 2148.5 1127.64L2148.5 1042.88 2148.5 1042.88 2160.98 1024.45C2164.02 1020.79 2165.68 1016.18 2165.69 1011.42L2165.69 995.816C2165.68 991.681 2166.34 987.572 2167.65 983.647L2207.11 875.675C2208.42 872.981 2211.67 871.858 2214.36 873.166L2218.66 875.228C2220.28 876.018 2222.05 876.429 2223.85 876.431L2231.31 876.431C2232.37 876.422 2233.41 876.787 2234.23 877.463L2237.67 880.247C2238.82 881.214 2240.36 881.594 2241.83 881.278L2244.37 880.763 2248.6 879.594Z" fill="#203864"/><path d="M2052.25 1127.64C2052.25 1133.34 2056.87 1137.96 2062.56 1137.96 2068.26 1137.96 2072.88 1133.34 2072.88 1127.64L2072.88 1058.17 2052.25 1060.44Z" fill="#203864"/></g></g></g></g></svg>