<svg width="96" height="96" xmlns="http://www.w3.org/2000/svg" xmlns:xlink="http://www.w3.org/1999/xlink" overflow="hidden"><defs><clipPath id="clip0"><rect x="44" y="175" width="96" height="96"/></clipPath></defs><g clip-path="url(#clip0)" transform="translate(-44 -175)"><path d="M122.5 192.5 121.5 183.5 110.5 194.5 111.1 199.7 95.1 215.7C93.7 215 92.1 214.5 90.4 214.5 84.9 214.5 80.4 219 80.4 224.5 80.4 230 84.9 234.5 90.4 234.5 95.9 234.5 100.4 230 100.4 224.5 100.4 222.8 100 221.3 99.3 219.9L115.3 203.9 120.5 204.5 131.5 193.5 122.5 192.5Z" fill="#FFFFFF"/><path d="M123.3 207.3 122 208.7 120.1 208.5 118 208.2C120.8 213 122.5 218.5 122.5 224.5 122.5 242.1 108.1 256.5 90.5 256.5 72.9 256.5 58.5 242.1 58.5 224.5 58.5 206.9 72.9 192.5 90.5 192.5 96.4 192.5 102 194.1 106.8 197L106.6 195 106.3 193 107.7 191.6 108.4 190.9C103 188.1 97 186.5 90.5 186.5 69.5 186.5 52.5 203.5 52.5 224.5 52.5 245.5 69.5 262.5 90.5 262.5 111.5 262.5 128.5 245.5 128.5 224.5 128.5 218 126.9 212 124 206.7L123.3 207.3Z" fill="#FFFFFF"/><path d="M107.2 217.7C108.1 219.8 108.5 222.1 108.5 224.5 108.5 234.4 100.4 242.5 90.5 242.5 80.6 242.5 72.5 234.4 72.5 224.5 72.5 214.6 80.6 206.5 90.5 206.5 92.9 206.5 95.2 207 97.3 207.8L101.8 203.3C98.4 201.5 94.6 200.5 90.5 200.5 77.3 200.5 66.5 211.3 66.5 224.5 66.5 237.7 77.3 248.5 90.5 248.5 103.7 248.5 114.5 237.7 114.5 224.5 114.5 220.4 113.5 216.6 111.7 213.2L107.2 217.7Z" fill="#FFFFFF"/></g></svg>