<svg width="96" height="96" xmlns="http://www.w3.org/2000/svg" xmlns:xlink="http://www.w3.org/1999/xlink" overflow="hidden"><defs><clipPath id="clip0"><rect x="592" y="312" width="96" height="96"/></clipPath></defs><g clip-path="url(#clip0)" transform="translate(-592 -312)"><path d="M651.7 352.8 642.8 352.8C639 352.8 635.9 355.8 635.9 359.6L635.9 367 631.4 367 631.4 361.1C631.4 359 631.5 356.3 630 354.6 629.1 353.6 628.1 352.8 627 352 626.2 351.5 625.4 350.9 624.8 350.1 624.5 349.7 624.3 349.2 624.1 348.7 625.3 348.2 626.6 348.1 627.8 348.2 628.4 348.2 628.9 347.8 628.9 347.2 629 346.6 628.6 346.1 628.1 345.9 626.6 345.7 625 345.9 623.5 346.4 623.5 346.2 623.5 346 623.4 345.9 623.3 345 623.5 344.1 623.7 343.2 624.5 341.1 626.5 340.2 628.4 339.5 628.7 339.4 629.1 339.3 629.6 339.2L629.9 339.1 630 339.1C630.5 339.2 630.9 339.3 631.3 339.4L631.8 339.5 632.4 339.6C633.4 340.8 633.9 342.3 633.8 343.8 633.7 345.3 633 346.7 631.8 347.7 631.4 348.1 631.3 348.8 631.7 349.3 632.1 349.7 632.7 349.8 633.2 349.4 633.9 348.8 634.5 348.1 634.9 347.3L635 347.3C636.7 347.1 638.4 346.6 639.9 345.8 640.1 345.6 640.3 345.4 640.4 345.1 640.5 344.8 640.4 344.5 640.2 344.3 639.8 343.8 639.2 343.7 638.7 344 637.8 344.5 636.9 344.9 635.8 345 635.9 344.7 636 344.3 636 344 636.1 342.7 635.9 341.4 635.4 340.3 636.2 340.4 637 340.5 637.8 340.5 638.5 340.5 639.2 340.4 639.9 340.3 641.2 341.9 642.9 343 644.9 343.5 647.5 344.8 649.9 346.5 649.9 349.3 649.9 349.7 650.1 350.2 650.4 350.4 650.8 350.6 651.2 350.6 651.6 350.4 652 350.2 652.2 349.7 652.1 349.3 652.1 347.1 651.1 345.1 649.4 343.8 650.8 343.7 652 343 652.9 342 653.3 341.5 653.2 340.8 652.8 340.4 652.3 340 651.6 340.1 651.2 340.5 650.7 341.1 649.4 341.6 647.5 341.5 645.6 341.5 643.7 340.8 642.3 339.6 643.9 338.9 645.3 337.7 646.2 336.2 646.5 335.7 646.3 335 645.8 334.6 645.3 334.3 644.6 334.5 644.3 335 642.6 338.1 639 339 633.3 337.6 634.6 336.5 635.2 334.8 635 333.1 635 332.7 634.8 332.3 634.4 332.1 634 331.9 633.6 331.9 633.2 332.2 632.8 332.4 632.7 332.9 632.7 333.3 632.8 335.9 631.4 336.4 629.1 337.1 628.8 337.2 628.4 337.3 628.1 337.4 627.5 336 626.2 334.9 624.7 334.5 624.3 334.4 623.9 334.5 623.6 334.8 623.3 335.1 623.2 335.5 623.3 336 623.4 336.4 623.7 336.7 624.2 336.8 625 337 625.6 337.6 626 338.3L626 338.4C624.1 339.2 622.6 340.7 621.9 342.6 621.7 343 621.6 343.5 621.6 344 621.4 343.8 621.2 343.6 621.1 343.3 620.7 342.5 620.4 341.5 620.3 340.6 620.2 340.2 619.9 339.8 619.6 339.7 619.2 339.5 618.8 339.6 618.5 339.9 618.2 340.2 618 340.6 618.2 341 618.4 342.2 618.7 343.3 619.3 344.3 619.9 345.3 620.7 346.1 621.8 346.6 621.9 348 622.4 349.4 623.1 350.7 622.4 351.6 621.5 352.3 620.5 352.9 620.2 353.1 620 353.5 619.9 353.9 619.9 354.3 620.1 354.7 620.5 354.9 620.9 355.1 621.3 355.1 621.6 354.8 622.6 354.1 623.5 353.4 624.3 352.5 624.9 353 625.5 353.4 626.1 353.8 627.1 354.4 627.9 355.1 628.7 356 629.6 357.1 629.6 359.2 629.6 361L629.6 367 625 367C625 359.6 621.4 359.2 621 359 619.5 358.6 615.6 356.5 614.7 352.3 614.6 352.1 614.6 351.8 614.6 351.6 612.9 349.2 613 345.9 614.9 343.6 614.7 342.9 614.6 342.2 614.6 341.5 614.6 338.3 616.9 335.5 620.1 334.9 621.1 332.1 623.7 330.2 626.6 330.3 627.1 330.3 627.7 330.4 628.2 330.5 629.4 329.1 631.1 328.3 633 328.1 634.9 328 636.7 328.6 638.1 329.9 639.9 328.7 642.1 328.4 644.1 329 646.2 329.6 647.8 331.2 648.5 333.2L648.9 333.2C652.7 333.2 655.7 336.2 655.8 340L655.8 340.3C658.1 341.6 659.4 344.1 659.2 346.7 658.4 350.2 655.3 352.9 651.7 352.8ZM673 363.3 666.1 351.4 666.1 351C666.5 340 660.9 329.7 651.4 324.2 641.9 318.6 630.2 318.6 620.7 324.2 611.2 329.7 605.6 340 606 351 606 360.4 610.3 369.3 617.8 375L617.8 400 649.4 400 649.4 388.1 654.3 388.1C657.5 388.1 660.5 386.9 662.7 384.6 664.9 382.4 666.1 379.3 666.1 376.2L666.1 370.2 670.5 370.2C673.1 370 675.4 367 673 363.3Z" fill="#FFFFFF"/></g></svg>