<svg width="96" height="96" xmlns="http://www.w3.org/2000/svg" xmlns:xlink="http://www.w3.org/1999/xlink" overflow="hidden"><defs><clipPath id="clip0"><rect x="44" y="70" width="96" height="96"/></clipPath></defs><g clip-path="url(#clip0)" transform="translate(-44 -70)"><path d="M105.9 132.4C113.7 124.9 114.1 112.5 106.7 104.5 114.6 108.6 121.1 114.9 124.9 119.1 120.9 123 114.1 128.8 105.9 132.4ZM66.6 111.8C69.9 109 73.4 106.6 77.2 104.6 69.9 112.6 70.3 124.9 78.1 132.4 69.9 128.8 63 123 59.1 119.1 61.4 116.5 63.9 114.1 66.6 111.8L66.6 111.8ZM92 134C83.2 134 76 126.8 76 118 76 109.2 83.2 102 92 102 100.8 102 108 109.2 108 118 108 126.8 100.8 134 92 134ZM130.9 116.3C125.1 109.5 109.9 94 92 94 74.1 94 58.9 109.5 53.1 116.3 51.6 118.1 51.7 120.6 53.3 122.3 59.2 128.5 74.3 142 92 142 109.7 142 124.8 128.5 130.8 122.3 132.3 120.7 132.4 118.1 130.9 116.3Z" fill="#FFFFFF"/><path d="M102 118C102 123.523 97.5228 128 92 128 86.4772 128 82 123.523 82 118 82 112.477 86.4772 108 92 108 97.5228 108 102 112.477 102 118Z" fill="#FFFFFF"/></g></svg>