<svg width="96" height="96" xmlns="http://www.w3.org/2000/svg" xmlns:xlink="http://www.w3.org/1999/xlink" overflow="hidden"><defs><clipPath id="clip0"><rect x="184" y="175" width="96" height="96"/></clipPath></defs><g clip-path="url(#clip0)" transform="translate(-184 -175)"><path d="M217 205.8C217 210.771 212.971 214.8 208 214.8 203.029 214.8 199 210.771 199 205.8 199 200.829 203.029 196.8 208 196.8 212.971 196.8 217 200.829 217 205.8Z" fill="#404040"/><path d="M265 205.8C265 210.771 260.971 214.8 256 214.8 251.029 214.8 247 210.771 247 205.8 247 200.829 251.029 196.8 256 196.8 260.971 196.8 265 200.829 265 205.8Z" fill="#404040"/><path d="M250 249.2 250 240.2C250 238.8 249.4 237.4 248.2 236.6 245.8 234.6 242.6 233.2 239.4 232.4 237.2 231.8 234.6 231.2 232 231.2 229.6 231.2 227 231.6 224.6 232.4 221.4 233.2 218.4 234.8 215.8 236.6 214.6 237.6 214 238.8 214 240.2L214 249.2 250 249.2Z" fill="#404040"/><path d="M241 219.8C241 224.771 236.971 228.8 232 228.8 227.029 228.8 223 224.771 223 219.8 223 214.829 227.029 210.8 232 210.8 236.971 210.8 241 214.829 241 219.8Z" fill="#404040"/><path d="M272.2 222.6C269.8 220.6 266.6 219.2 263.4 218.4 261.2 217.8 258.6 217.2 256 217.2 253.6 217.2 251 217.6 248.6 218.4 247.4 218.8 246.2 219.2 245 219.8L245 220C245 223.4 243.6 226.6 241.4 228.8 245.2 230 248.2 231.6 250.6 233.4 251.2 234 251.8 234.4 252.2 235.2L274 235.2 274 226.2C274 224.8 273.4 223.4 272.2 222.6Z" fill="#404040"/><path d="M213.4 233.4 213.4 233.4C216.2 231.4 219.4 229.8 222.6 228.8 220.4 226.4 219 223.4 219 220 219 219.8 219 219.8 219 219.6 217.8 219.2 216.6 218.6 215.4 218.4 213.2 217.8 210.6 217.2 208 217.2 205.6 217.2 203 217.6 200.6 218.4 197.4 219.4 194.4 220.8 191.8 222.6 190.6 223.4 190 224.8 190 226.2L190 235.2 211.6 235.2C212.2 234.4 212.6 234 213.4 233.4Z" fill="#404040"/></g></svg>