<svg width="1219" height="1218" xmlns="http://www.w3.org/2000/svg" xmlns:xlink="http://www.w3.org/1999/xlink" overflow="hidden"><defs><clipPath id="clip0"><rect x="736" y="856" width="1219" height="1218"/></clipPath><linearGradient x1="736.5" y1="855.5" x2="1954.5" y2="2074.5" gradientUnits="userSpaceOnUse" spreadMethod="reflect" id="fill1"><stop offset="0" stop-color="#C00000"/><stop offset="0.26" stop-color="#C00000"/><stop offset="0.54" stop-color="#FF3737"/><stop offset="0.9" stop-color="#960000"/><stop offset="1" stop-color="#960000"/></linearGradient><clipPath id="clip2"><rect x="929" y="907" width="833" height="976"/></clipPath><clipPath id="clip3"><rect x="929" y="907" width="833" height="976"/></clipPath><clipPath id="clip4"><rect x="929" y="907" width="1605" height="1605"/></clipPath></defs><g clip-path="url(#clip0)" transform="translate(-736 -856)"><path d="M736 1465C736 1128.66 1008.88 856 1345.5 856 1682.12 856 1955 1128.66 1955 1465 1955 1801.34 1682.12 2074 1345.5 2074 1008.88 2074 736 1801.34 736 1465Z" fill="url(#fill1)" fill-rule="evenodd"/><g clip-path="url(#clip2)"><g clip-path="url(#clip3)"><g clip-path="url(#clip4)"><path d="M680.013 298.31C680.013 346.49 621.352 385.547 548.991 385.547 476.629 385.547 417.968 346.49 417.968 298.31 417.968 250.13 476.629 211.073 548.991 211.073 621.352 211.073 680.013 250.13 680.013 298.31Z" fill="#FFFFFF" transform="matrix(0.159708 -0.987311 0.98716 0.159733 1095.95 1699.77)"/><path d="M803.697 494.686C803.697 542.866 754.837 581.924 694.565 581.924 634.294 581.924 585.434 542.866 585.434 494.686 585.434 446.505 634.294 407.447 694.565 407.447 754.837 407.447 803.697 446.505 803.697 494.686Z" fill="#FFFFFF" transform="matrix(0.383964 -0.923464 0.923324 0.384023 900.088 1853.21)"/><path d="M405.601 298.31C405.601 370.672 366.544 429.332 318.364 429.332 270.185 429.332 231.128 370.672 231.128 298.31 231.128 225.948 270.185 167.288 318.364 167.288 366.544 167.288 405.601 225.948 405.601 298.31Z" fill="#FFFFFF" transform="matrix(0.98716 -0.159733 0.159708 0.987311 885.382 961.657)"/><path d="M260.044 494.686C260.044 554.957 220.986 603.817 172.806 603.817 124.625 603.817 85.5672 554.957 85.5672 494.686 85.5672 434.414 124.625 385.554 172.806 385.554 220.986 385.554 260.044 434.414 260.044 494.686Z" fill="#FFFFFF" transform="matrix(0.923324 -0.384023 0.383964 0.923464 752.355 1011.3)"/><path d="M440.528 866.85C465.36 866.626 489.691 873.844 510.384 887.573 516.673 891.495 523.267 894.905 530.104 897.768 584.291 921.971 647.84 897.664 672.044 843.477 674.601 837.755 676.651 831.819 678.172 825.739 686.948 792.89 683.503 757.973 668.479 727.472 658.975 707.909 645.144 690.765 628.036 677.336 615.711 668.073 604.496 657.417 594.612 645.584L582.914 631.044C564.953 609.354 552.154 583.868 545.479 556.509 540.592 534.304 530.124 513.713 515.063 496.68 477.052 451.223 409.388 445.187 363.932 483.198 359.047 487.285 354.535 491.795 350.45 496.68 335.498 513.786 325.043 534.349 320.034 556.509 313.36 583.868 300.56 609.354 282.6 631.044L271.068 645.584C261.176 657.411 249.963 668.065 237.644 677.336 220.538 690.724 206.754 707.883 197.368 727.472 182.157 757.91 178.591 792.856 187.341 825.739 195.523 856.342 216.378 882 244.663 896.263 273.289 909.785 306.351 910.333 335.409 897.768 341.812 895.221 347.965 892.087 353.793 888.409 373.434 875.853 396.019 868.652 419.304 867.519Z" fill="#FFFFFF" transform="matrix(1 0 0 1.00015 929 907)"/><path d="M1432.05 849.807C1432.05 897.987 1373.39 937.044 1301.03 937.044 1228.67 937.044 1170.01 897.987 1170.01 849.807 1170.01 801.628 1228.67 762.57 1301.03 762.57 1373.39 762.57 1432.05 801.628 1432.05 849.807Z" fill="#FFFFFF" transform="matrix(0.159708 -0.987311 0.98716 0.159733 1183.52 2905.72)"/><path d="M1555.75 1046.19C1555.75 1094.37 1506.89 1133.43 1446.62 1133.43 1386.35 1133.43 1337.49 1094.37 1337.49 1046.19 1337.49 998.013 1386.35 958.955 1446.62 958.955 1506.89 958.955 1555.75 998.013 1555.75 1046.19Z" fill="#FFFFFF" transform="matrix(0.383964 -0.923464 0.923324 0.384023 854.13 2887.5)"/><path d="M1157.64 849.807C1157.64 922.169 1118.59 980.83 1070.41 980.83 1022.23 980.83 983.169 922.169 983.169 849.807 983.169 777.446 1022.23 718.785 1070.41 718.785 1118.59 718.785 1157.64 777.446 1157.64 849.807Z" fill="#FFFFFF" transform="matrix(0.98716 -0.159733 0.159708 0.987311 807.003 1088.85)"/><path d="M1012.1 1046.19C1012.1 1106.46 973.042 1155.32 924.861 1155.32 876.681 1155.32 837.623 1106.46 837.623 1046.19 837.623 985.921 876.681 937.061 924.861 937.061 973.042 937.061 1012.1 985.921 1012.1 1046.19Z" fill="#FFFFFF" transform="matrix(0.923324 -0.384023 0.383964 0.923464 598.103 1342.41)"/><path d="M1192.57 1418.35C1217.4 1418.12 1241.73 1425.34 1262.42 1439.07 1268.71 1442.99 1275.31 1446.4 1282.14 1449.26 1336.33 1473.47 1399.88 1449.16 1424.08 1394.97 1426.64 1389.25 1428.69 1383.31 1430.21 1377.23 1438.99 1344.39 1435.54 1309.47 1420.52 1278.97 1411.01 1259.4 1397.18 1242.26 1380.08 1228.83 1367.75 1219.57 1356.53 1208.91 1346.65 1197.08L1334.95 1182.54C1316.99 1160.85 1304.19 1135.36 1297.52 1108 1292.63 1085.8 1282.16 1065.21 1267.1 1048.18 1229.09 1002.72 1161.43 996.682 1115.97 1034.69 1111.09 1038.78 1106.57 1043.29 1102.49 1048.18 1087.54 1065.28 1077.08 1085.84 1072.07 1108 1065.4 1135.36 1052.6 1160.85 1034.64 1182.54L1023.11 1197.08C1013.22 1208.91 1002 1219.56 989.683 1228.83 972.577 1242.22 958.793 1259.38 949.408 1278.97 934.196 1309.41 930.63 1344.35 939.38 1377.23 956.614 1436.33 1018.5 1470.27 1077.6 1453.04 1087.81 1450.06 1097.54 1445.64 1106.5 1439.9 1126.14 1427.35 1148.73 1420.15 1172.01 1419.01Z" fill="#FFFFFF" transform="matrix(1 0 0 1.00015 929 907)"/></g></g></g></g></svg>