<svg width="96" height="96" xmlns="http://www.w3.org/2000/svg" xmlns:xlink="http://www.w3.org/1999/xlink" overflow="hidden"><defs><clipPath id="clip0"><rect x="57" y="175" width="96" height="96"/></clipPath></defs><g clip-path="url(#clip0)" transform="translate(-57 -175)"><path d="M90 205.8C90 210.771 85.9706 214.8 81 214.8 76.0294 214.8 72 210.771 72 205.8 72 200.829 76.0294 196.8 81 196.8 85.9706 196.8 90 200.829 90 205.8Z" stroke="#0D0D0D" fill="none"/><path d="M138 205.8C138 210.771 133.971 214.8 129 214.8 124.029 214.8 120 210.771 120 205.8 120 200.829 124.029 196.8 129 196.8 133.971 196.8 138 200.829 138 205.8Z" stroke="#0D0D0D" fill="none"/><path d="M123 249.2 123 240.2C123 238.8 122.4 237.4 121.2 236.6 118.8 234.6 115.6 233.2 112.4 232.4 110.2 231.8 107.6 231.2 105 231.2 102.6 231.2 100 231.6 97.6 232.4 94.4 233.2 91.4 234.8 88.8 236.6 87.6 237.6 87 238.8 87 240.2L87 249.2 123 249.2Z" stroke="#0D0D0D" fill="none"/><path d="M114 219.8C114 224.771 109.971 228.8 105 228.8 100.029 228.8 96 224.771 96 219.8 96 214.829 100.029 210.8 105 210.8 109.971 210.8 114 214.829 114 219.8Z" stroke="#0D0D0D" fill="none"/><path d="M145.2 222.6C142.8 220.6 139.6 219.2 136.4 218.4 134.2 217.8 131.6 217.2 129 217.2 126.6 217.2 124 217.6 121.6 218.4 120.4 218.8 119.2 219.2 118 219.8L118 220C118 223.4 116.6 226.6 114.4 228.8 118.2 230 121.2 231.6 123.6 233.4 124.2 234 124.8 234.4 125.2 235.2L147 235.2 147 226.2C147 224.8 146.4 223.4 145.2 222.6Z" stroke="#0D0D0D" fill="none"/><path d="M86.4 233.4 86.4 233.4C89.2 231.4 92.4 229.8 95.6 228.8 93.4 226.4 92 223.4 92 220 92 219.8 92 219.8 92 219.6 90.8 219.2 89.6 218.6 88.4 218.4 86.2 217.8 83.6 217.2 81 217.2 78.6 217.2 76 217.6 73.6 218.4 70.4 219.4 67.4 220.8 64.8 222.6 63.6 223.4 63 224.8 63 226.2L63 235.2 84.6 235.2C85.2 234.4 85.6 234 86.4 233.4Z" stroke="#0D0D0D" fill="none"/></g></svg>