<svg width="96" height="96" xmlns="http://www.w3.org/2000/svg" xmlns:xlink="http://www.w3.org/1999/xlink" overflow="hidden"><defs><clipPath id="clip0"><rect x="236" y="312" width="96" height="96"/></clipPath></defs><g clip-path="url(#clip0)" transform="translate(-236 -312)"><path d="M308 346.8 308 330 300 330 300 339.2 284 324 284 324 242 364 246.5 367.8 284 332.2 284 332.2 321.5 367.8 326 364Z" fill="#404040"/><path d="M254 366.3 254 396 278 396 278 371 290 371 290 396 314 396 314 366.3 284 337.8 254 366.3ZM272 383 260 383 260 371 272 371 272 383ZM296 371 308 371 308 383 296 383 296 371Z" fill="#404040"/></g></svg>