<svg width="96" height="96" xmlns="http://www.w3.org/2000/svg" xmlns:xlink="http://www.w3.org/1999/xlink" overflow="hidden"><defs><clipPath id="clip0"><rect x="106" y="312" width="96" height="96"/></clipPath></defs><g clip-path="url(#clip0)" transform="translate(-106 -312)"><path d="M178 346.8 178 330 170 330 170 339.2 154 324 154 324 112 364 116.5 367.8 154 332.2 154 332.2 191.5 367.8 196 364Z" stroke="#000000" stroke-width="1.33333" fill="#FFFFFF"/><path d="M124 366.3 124 396 148 396 148 371 160 371 160 396 184 396 184 366.3 154 337.8 124 366.3ZM142 383 130 383 130 371 142 371 142 383ZM166 371 178 371 178 383 166 383 166 371Z" stroke="#000000" stroke-width="1.33333" fill="#FFFFFF"/></g></svg>