<svg width="96" height="96" xmlns="http://www.w3.org/2000/svg" xmlns:xlink="http://www.w3.org/1999/xlink" overflow="hidden"><defs><clipPath id="clip0"><rect x="184" y="318" width="96" height="96"/></clipPath></defs><g clip-path="url(#clip0)" transform="translate(-184 -318)"><path d="M234 348 230 348C227.8 348 226 346.2 226 344L226 336C226 333.8 227.8 332 230 332L234 332C236.2 332 238 333.8 238 336L238 344C238 346.2 236.2 348 234 348Z" fill="#404040"/><path d="M264 368 240 368 240 364 264 364 264 368ZM264 380 240 380 240 376 264 376 264 380ZM264 392 240 392 240 388 264 388 264 392ZM232 392 200 392 200 384C200 382.8 200.6 381.6 201.6 380.8 203.8 379.2 206.6 377.8 209.4 377 211.6 376.4 213.8 376 216 376 218.4 376 220.6 376.4 222.6 377 225.4 377.8 228.2 379 230.4 380.8 231.4 381.6 232 382.8 232 384L232 392ZM216 358C220.4 358 224 361.6 224 366 224 370.4 220.4 374 216 374 211.6 374 208 370.4 208 366 208 361.6 211.6 358 216 358ZM268 344 242 344C242 348.4 238.4 352 234 352L230 352C225.6 352 222 348.4 222 344L196 344C193.8 344 192 345.8 192 348L192 396C192 398.2 193.8 400 196 400L268 400C270.2 400 272 398.2 272 396L272 348C272 345.8 270.2 344 268 344Z" fill="#404040"/></g></svg>