<svg width="96" height="96" xmlns="http://www.w3.org/2000/svg" xmlns:xlink="http://www.w3.org/1999/xlink" overflow="hidden"><defs><clipPath id="clip0"><rect x="54" y="318" width="96" height="96"/></clipPath></defs><g clip-path="url(#clip0)" transform="translate(-54 -318)"><path d="M104 348 100 348C97.8 348 96 346.2 96 344L96 336C96 333.8 97.8 332 100 332L104 332C106.2 332 108 333.8 108 336L108 344C108 346.2 106.2 348 104 348Z" stroke="#0D0D0D" fill="none"/><path d="M134 368 110 368 110 364 134 364 134 368ZM134 380 110 380 110 376 134 376 134 380ZM134 392 110 392 110 388 134 388 134 392ZM102 392 70 392 70 384C70 382.8 70.6 381.6 71.6 380.8 73.8 379.2 76.6 377.8 79.4 377 81.6 376.4 83.8 376 86 376 88.4 376 90.6 376.4 92.6 377 95.4 377.8 98.2 379 100.4 380.8 101.4 381.6 102 382.8 102 384L102 392ZM86 358C90.4 358 94 361.6 94 366 94 370.4 90.4 374 86 374 81.6 374 78 370.4 78 366 78 361.6 81.6 358 86 358ZM138 344 112 344C112 348.4 108.4 352 104 352L100 352C95.6 352 92 348.4 92 344L66 344C63.8 344 62 345.8 62 348L62 396C62 398.2 63.8 400 66 400L138 400C140.2 400 142 398.2 142 396L142 348C142 345.8 140.2 344 138 344Z" stroke="#0D0D0D" fill="none"/></g></svg>